<svg xmlns="http://www.w3.org/2000/svg" version="1.1" xmlns:xlink="http://www.w3.org/1999/xlink" width="800px" height="800px"><svg width="800px" height="800px" viewBox="-3.6 -3.6 43.20 43.20" xmlns="http://www.w3.org/2000/svg" xmlns:xlink="http://www.w3.org/1999/xlink" aria-hidden="true" role="img" class="iconify iconify--twemoji" preserveAspectRatio="xMidYMid meet" fill="#000000">

<g id="SvgjsG1005" stroke-width="0">

<rect x="-3.6" y="-3.6" width="43.20" height="43.20" rx="6.48" fill="#000000" strokewidth="0"></rect>

</g>

<g id="SvgjsG1004" stroke-linecap="round" stroke-linejoin="round"></g>

<g id="SvgjsG1003">

<path fill="#f0efef" d="M36 32a4 4 0 0 1-4 4H4a4 4 0 0 1-4-4V4a4 4 0 0 1 4-4h28a4 4 0 0 1 4 4v28z"></path>

<path fill="#000000" d="M12.792 9.156c0-1.55.992-2.418 2.325-2.418c1.333 0 2.325.868 2.325 2.418V24.72h5.52c1.58 0 2.263 1.179 2.232 2.232c-.061 1.025-.868 2.048-2.231 2.048H15.21c-1.519 0-2.418-.992-2.418-2.543V9.156z"></path>

</g>

</svg><style>@media (prefers-color-scheme: light) { :root { filter: none; } }
@media (prefers-color-scheme: dark) { :root { filter: none; } }
</style></svg>