<?xml version="1.0" encoding="utf-8"?>
<svg width="141" height="43" viewBox="0 0 141 43" fill="none" xmlns="http://www.w3.org/2000/svg">
  <defs>
    <clipPath id="clip_path_1">
      <rect width="121" height="28" />
    </clipPath>
  </defs>
  <g>
    <g fill="#030303">
      <path d="M136 0C138.762 0 141 2.2382 141 5L141 38C141 40.7618 138.762 43 136 43L5 43C2.2382 43 0 40.7618 0 38L0 5C0 2.2382 2.2382 0 5 0L136 0Z" />
      <path d="M141 5C141 2.2382 138.762 0 136 0L5 0C2.2382 0 0 2.2382 0 5L0 38C0 40.7618 2.2382 43 5 43L136 43C138.762 43 141 40.7618 141 38L141 5ZM5 3L136 3Q138 3 138 5L138 38Q138 40 136 40L5 40Q3 40 3 38L3 5Q3 3 5 3Z" fill="#BDBDBD" fill-rule="evenodd" />
    </g>
    <g fill="#030303" transform="translate(4 4)">
      <path d="M131 0C132.105 0 133 0.89528 133 2L133 33C133 34.1047 132.105 35 131 35L2 35C0.89528 35 0 34.1047 0 33L0 2C0 0.89528 0.89528 0 2 0L131 0Z" />
      <path d="M133 2C133 0.89528 132.105 0 131 0L2 0C0.89528 0 0 0.89528 0 2L0 33C0 34.1047 0.89528 35 2 35L131 35C132.105 35 133 34.1047 133 33L133 2ZM2 1L131 1Q132 1 132 2L132 33Q132 34 131 34L2 34Q1 34 1 33L1 2Q1 1 2 1Z" fill="#BDBDBD" fill-rule="evenodd" />
    </g>
    <path d="M16.1591 11.25L14.0455 11.25Q13.7898 10.0398 13.0653 9.21307Q12.3409 8.38636 11.3182 7.96023Q10.2955 7.53409 9.13636 7.53409Q7.55114 7.53409 6.26847 8.33523Q4.9858 9.13636 4.23153 10.696Q3.47727 12.2557 3.47727 14.5227Q3.47727 16.7898 4.23153 18.3494Q4.9858 19.9091 6.26847 20.7102Q7.55114 21.5114 9.13636 21.5114Q10.2955 21.5114 11.3182 21.0852Q12.3409 20.6591 13.0653 19.8324Q13.7898 19.0057 14.0455 17.7955L16.1591 17.7955Q15.8352 19.5852 14.8381 20.8594Q13.8409 22.1335 12.3665 22.8111Q10.892 23.4886 9.13636 23.4886Q6.90341 23.4886 5.16477 22.3977Q3.42614 21.3068 2.42898 19.2955Q1.43182 17.2841 1.43182 14.5227Q1.43182 11.7614 2.42898 9.75Q3.42614 7.73864 5.16477 6.64773Q6.90341 5.55682 9.13636 5.55682Q10.892 5.55682 12.3665 6.23438Q13.8409 6.91193 14.8381 8.18608Q15.8352 9.46023 16.1591 11.25ZM20.2841 5.79545L25.4659 20.4886L25.6705 20.4886L30.8523 5.79545L33.0682 5.79545L26.6591 23.25L24.4773 23.25L18.0682 5.79545L20.2841 5.79545ZM42.5455 23.25L42.5455 5.79545L48.6477 5.79545Q50.4716 5.79545 51.6563 6.42188Q52.8409 7.0483 53.4205 8.10085Q54 9.15341 54 10.4318Q54 11.5568 53.6037 12.2898Q53.2074 13.0227 52.5639 13.4489Q51.9205 13.875 51.1705 14.0795L51.1705 14.25Q51.9716 14.3011 52.7813 14.8125Q53.5909 15.3239 54.1364 16.2784Q54.6818 17.233 54.6818 18.6136Q54.6818 19.9261 54.0852 20.9744Q53.4886 22.0227 52.2017 22.6364Q50.9148 23.25 48.8523 23.25L42.5455 23.25ZM44.6591 21.375L48.8523 21.375Q50.9233 21.375 51.7969 20.5696Q52.6705 19.7642 52.6705 18.6136Q52.6705 17.7273 52.2188 16.973Q51.767 16.2188 50.9318 15.7628Q50.0966 15.3068 48.9545 15.3068L44.6591 15.3068L44.6591 21.375ZM44.6591 13.4659L48.5795 13.4659Q50.0114 13.4659 51 12.6392Q51.9886 11.8125 51.9886 10.4318Q51.9886 9.28125 51.1875 8.47585Q50.3864 7.67046 48.6477 7.67045L44.6591 7.67045L44.6591 13.4659ZM66.1364 17.8977L66.1364 10.1591L68.1477 10.1591L68.1477 23.25L66.1364 23.25L66.1364 21.0341L66 21.0341Q65.5398 22.0313 64.5682 22.7259Q63.5966 23.4205 62.1136 23.4205Q60.2727 23.4205 59.0795 22.2017Q57.8864 20.983 57.8864 18.4773L57.8864 10.1591L59.8977 10.1591L59.8977 18.3409Q59.8977 19.7727 60.7031 20.625Q61.5085 21.4773 62.7614 21.4773Q63.5114 21.4773 64.2912 21.0938Q65.071 20.7102 65.6037 19.9176Q66.1364 19.125 66.1364 17.8977ZM71.8296 23.25L71.8296 10.1591L73.8409 10.1591L73.8409 23.25L71.8296 23.25ZM72.8523 7.97727Q72.2642 7.97727 71.8423 7.5767Q71.4205 7.17614 71.4205 6.61364Q71.4205 6.05114 71.8423 5.65057Q72.2642 5.25 72.8523 5.25Q73.4403 5.25 73.8622 5.65057Q74.2841 6.05114 74.2841 6.61364Q74.2841 7.17614 73.8622 7.5767Q73.4403 7.97727 72.8523 7.97727ZM79.5341 5.79545L79.5341 23.25L77.5227 23.25L77.5227 5.79545L79.5341 5.79545ZM88.1591 23.5227Q86.5227 23.5227 85.2699 22.6918Q84.0171 21.8608 83.3097 20.3395Q82.6023 18.8182 82.6023 16.7386Q82.6023 14.6761 83.3097 13.1591Q84.0171 11.642 85.2784 10.8153Q86.5398 9.98864 88.1932 9.98864Q89.4716 9.98864 90.2173 10.4105Q90.9631 10.8324 91.3594 11.3651Q91.7557 11.8977 91.9773 12.2386L92.1477 12.2386L92.1477 5.79545L94.1591 5.79545L94.1591 23.25L92.2159 23.25L92.2159 21.2386L91.9773 21.2386Q91.7557 21.5966 91.3466 22.1378Q90.9375 22.679 90.179 23.1009Q89.4205 23.5227 88.1591 23.5227ZM88.4318 21.7159Q90.2472 21.7159 91.2145 20.3224Q92.1818 18.929 92.1818 16.7045Q92.1818 14.5057 91.2273 13.1506Q90.2727 11.7955 88.4318 11.7955Q87.1534 11.7955 86.3054 12.4474Q85.4574 13.0994 85.0355 14.2116Q84.6136 15.3239 84.6136 16.7045Q84.6136 18.1023 85.044 19.2401Q85.4744 20.3778 86.3224 21.0469Q87.1705 21.7159 88.4318 21.7159ZM103.602 23.5227Q101.71 23.5227 100.342 22.6832Q98.9744 21.8438 98.2372 20.331Q97.5 18.8182 97.5 16.8068Q97.5 14.7955 98.2372 13.2571Q98.9744 11.7188 100.3 10.8537Q101.625 9.98864 103.398 9.98864Q104.42 9.98864 105.418 10.3295Q106.415 10.6705 107.233 11.4332Q108.051 12.196 108.537 13.4489Q109.023 14.7017 109.023 16.5341L109.023 17.3864L99.5199 17.3864Q99.5881 19.483 100.709 20.5994Q101.83 21.7159 103.602 21.7159Q104.787 21.7159 105.639 21.2045Q106.491 20.6932 106.875 19.6705L108.818 20.2159Q108.358 21.6989 106.977 22.6108Q105.597 23.5227 103.602 23.5227ZM99.5199 15.6477L106.977 15.6477Q106.977 13.9858 106.006 12.8906Q105.034 11.7955 103.398 11.7955Q102.247 11.7955 101.403 12.3324Q100.56 12.8693 100.074 13.7514Q99.5881 14.6335 99.5199 15.6477ZM112.091 23.25L112.091 10.1591L114.034 10.1591L114.034 12.1364L114.17 12.1364Q114.528 11.1648 115.466 10.5597Q116.403 9.95455 117.58 9.95454Q117.801 9.95454 118.134 9.96307Q118.466 9.97159 118.636 9.98864L118.636 12.0341Q118.534 12.0085 118.172 11.9531Q117.81 11.8977 117.409 11.8977Q115.977 11.8977 115.04 12.767Q114.102 13.6364 114.102 14.9659L114.102 23.25L112.091 23.25Z" fill="none" clip-path="url(#clip_path_1)" stroke-width="1" stroke="#BDBDBD" transform="translate(10 7)" />
  </g>
</svg>