<?xml version="1.0" encoding="utf-8"?>
<svg width="143" height="43" viewBox="0 0 143 43" fill="none" xmlns="http://www.w3.org/2000/svg">
  <defs>
    <clipPath id="clip_path_1">
      <rect width="113" height="29" />
    </clipPath>
  </defs>
  <g>
    <g fill="#030303">
      <path d="M136 0C139.867 0 143 3.13348 143 7L143 36C143 39.8665 139.867 43 136 43L7 43C3.13348 43 0 39.8665 0 36L0 7C0 3.13348 3.13348 0 7 0L136 0Z" />
      <path d="M143 7C143 3.13348 139.867 0 136 0L7 0C3.13348 0 0 3.13348 0 7L0 36C0 39.8665 3.13348 43 7 43L136 43C139.867 43 143 39.8665 143 36L143 7ZM7 3L136 3Q140 3 140 7L140 36Q140 40 136 40L7 40Q3 40 3 36L3 7Q3 3 7 3Z" fill="#F8F8F8" fill-rule="evenodd" />
    </g>
    <g fill="#030303" transform="translate(6 6)">
      <path d="M129 0C130.105 0 131 0.89528 131 2L131 29C131 30.1047 130.105 31 129 31L2 31C0.89528 31 0 30.1047 0 29L0 2C0 0.89528 0.89528 0 2 0L129 0Z" />
      <path d="M131 2C131 0.89528 130.105 0 129 0L2 0C0.89528 0 0 0.89528 0 2L0 29C0 30.1047 0.89528 31 2 31L129 31C130.105 31 131 30.1047 131 29L131 2ZM128 3L3 3L3 28L128 28L128 3Z" fill="#F8F8F8" fill-rule="evenodd" />
    </g>
    <path d="M9 5.73047Q11.1914 5.73047 12.7383 6.49219L12.7383 10.0781L12.7148 10.1016Q12.0586 9.09375 9.94922 8.76563Q9.32812 8.66016 8.37891 8.66016Q7.42969 8.66016 6.51563 9.01758Q5.60156 9.375 5.01563 10.0313Q3.87891 11.3086 3.87891 13.6758Q3.87891 16.4297 5.32031 17.7773Q6.51563 18.9023 8.48438 18.9023Q10.7109 18.9023 12.0938 17.9531Q12.5977 17.6133 12.9492 17.1094L12.9844 17.1328L12.9844 20.4141Q11.1914 21.9023 8.15625 21.9023Q4.58203 21.9023 2.55469 19.6289Q0.609375 17.4609 0.609375 13.8867Q0.609375 10.1016 2.74219 7.92188Q4.89844 5.73047 9 5.73047ZM22.6055 21.6563C22.3555 21.625 21.9453 21.6094 21.375 21.6094L20.0859 21.6094C19.875 21.6094 19.6836 21.6172 19.5117 21.6328L19.5 21.6094Q19.5469 21.5273 19.5469 21.4219Q19.5469 21.3164 19.5293 21.1992Q19.5117 21.082 19.4297 20.7773Q19.3477 20.4727 19.1719 19.8984L18.6797 18.3281L14.3203 5.97656Q15.0469 6.02344 16.1719 6.02344Q17.2969 6.02344 17.6133 5.92969L21.1406 16.582L24.2344 5.97656Q24.9375 6.02344 25.9688 6.02344Q27.375 6.02344 27.6094 5.92969L23.332 18.293Q23.332 18.293 22.9219 19.6641Q22.582 20.8359 22.582 21.1816Q22.582 21.5273 22.6289 21.6211L22.6055 21.6563ZM47.7246 20.4668Q46.8633 21.1523 45.4922 21.5273Q44.1211 21.9023 42.123 21.9023Q40.125 21.9023 37.875 21.5391L37.875 6.09375Q40.1484 5.73047 41.8184 5.73047Q43.4883 5.73047 44.5605 6.04688Q45.6328 6.36328 46.3125 6.90234Q47.6484 7.94531 47.6484 9.60352Q47.6484 11.2617 46.4414 12.3516Q47.8711 12.7969 48.6563 14.0391Q49.3711 15.1523 49.3711 16.5059Q49.3711 17.8594 48.9785 18.8203Q48.5859 19.7813 47.7246 20.4668ZM40.9805 11.918Q41.4727 12 42.2109 12Q42.9492 12 43.4238 11.8066Q43.8984 11.6133 44.1563 11.3203Q44.5781 10.8398 44.5781 9.98438Q44.5781 8.19141 42.4688 8.19141Q41.5781 8.19141 40.9805 8.26172L40.9805 11.918ZM42.7148 14.4258Q41.7305 14.4258 40.9805 14.5547L40.9805 19.1602Q41.8008 19.3711 42.7031 19.3711Q43.6055 19.3711 44.291 19.1543Q44.9766 18.9375 45.4453 18.5625Q46.3945 17.7891 46.3945 16.5938Q46.3945 14.4258 42.7148 14.4258ZM58.9453 20.543Q57.4453 21.7852 55.6758 21.7852Q53.7773 21.7852 52.6992 20.5078Q51.668 19.2656 51.668 17.0977L51.668 12.4453Q51.668 10.1016 51.5684 9.75586Q51.4688 9.41016 51.4219 9.31641Q51.9609 9.36328 52.5469 9.36328L53.5195 9.36328Q53.9063 9.36328 54.5391 9.32813L54.5391 16.1133Q54.5391 18.5273 55.8516 18.9141Q56.25 19.0313 56.7188 19.0313Q58.1016 19.0313 58.9453 18.0234L58.9453 9.36328L61.8516 9.36328L61.8516 20.1094Q61.8516 21.1406 61.9453 21.6094L58.9453 21.6094L58.9453 20.543ZM65.2148 5.87109Q66.1523 4.40625 67.1719 3.29297L69.6914 5.27344Q69.1875 5.89453 68.7539 6.49219Q68.7539 6.49219 67.8516 7.76953L65.2148 5.87109ZM68.2969 20.2969Q68.2969 21.3047 68.3438 21.6094L65.3672 21.6094L65.3672 9.36328L68.2969 9.36328L68.2969 20.2969ZM74.3203 20.2969Q74.3203 21.3047 74.3672 21.6094L71.3906 21.6094L71.3906 4.14844L74.3203 4.14844L74.3203 20.2969ZM86.0156 20.9531Q84.5273 21.7852 83.0391 21.7852Q81.5508 21.7852 80.4375 21.3164Q79.3242 20.8477 78.5391 20.0273Q76.9219 18.3398 76.9219 15.6445Q76.9219 12.8555 78.7969 11.0039Q80.6836 9.12891 83.625 9.12891Q84.5273 9.12891 85.3945 9.36328L85.3945 4.14844L88.2656 4.14844L88.2656 16.6758Q88.2656 18.2344 88.4121 18.7148Q88.5586 19.1953 88.7402 19.418Q88.9219 19.6406 89.2031 19.8398L87 21.7852Q86.3906 21.457 86.0156 20.9531ZM83.5898 19.0898Q84.5742 19.0898 85.3945 18.7148L85.3945 12.2227Q84.5742 11.8828 83.6133 11.8828Q82.6523 11.8828 81.9668 12.1406Q81.2813 12.3984 80.7891 12.8555Q79.7578 13.8164 79.7578 15.3516Q79.7578 17.0273 80.6953 18.0234Q81.7031 19.0898 83.5898 19.0898ZM91.0547 15.5859Q91.0547 14.2148 91.5234 13.043Q91.9922 11.8711 92.8477 10.9922Q94.6758 9.12891 97.6289 9.12891Q100.125 9.12891 101.637 10.7813Q103.125 12.375 103.125 14.7891Q103.125 15.7148 102.984 16.0547Q101.813 16.3828 98.2148 16.3828L94.0898 16.3828Q94.3945 17.6367 95.5078 18.334Q96.6211 19.0313 98.4023 19.0313Q100.266 19.0313 101.602 18.3633Q101.953 18.1875 102.129 18.0352Q102.105 18.5273 102.07 19.043L101.941 20.8711Q101.051 21.4805 99.0586 21.7148Q98.4727 21.7852 97.9336 21.7852Q94.957 21.7852 93.0117 20.0508Q91.0547 18.3047 91.0547 15.5859ZM100.008 14.1094Q99.5273 11.5898 97.2656 11.5898Q95.4844 11.5898 94.5586 13.125Q94.2773 13.5938 94.125 14.1563Q94.4063 14.168 94.8164 14.1797L95.6836 14.1797Q96.1172 14.1914 96.5156 14.1914L97.1836 14.1914Q97.7813 14.1914 98.3555 14.1797L99.3164 14.1445Q99.7031 14.1328 100.008 14.1094ZM108.434 20.2969Q108.434 21.3047 108.48 21.6094L105.563 21.6094L105.563 9.36328L108.434 9.36328L108.434 10.2656Q109.43 9.12891 110.525 9.12891Q111.621 9.12891 112.254 9.39844L112.043 12.5508L111.996 12.5859Q111.586 11.8594 110.297 11.8594Q109.805 11.8594 109.295 12.1934Q108.785 12.5273 108.434 13.0781L108.434 20.2969Z" fill="#F8F8F8" clip-path="url(#clip_path_1)" transform="translate(15 8)" />
  </g>
</svg>