<?xml version="1.0" encoding="utf-8"?>
<svg width="59" height="43" viewBox="0 0 59 43" fill="none" xmlns="http://www.w3.org/2000/svg">
  <defs>
    <clipPath id="clip_path_1">
      <rect width="28" height="29" />
    </clipPath>
  </defs>
  <g>
    <g fill="#030303">
      <path d="M52 0C55.8665 0 59 3.13348 59 7L59 36C59 39.8665 55.8665 43 52 43L7 43C3.13348 43 0 39.8665 0 36L0 7C0 3.13348 3.13348 0 7 0L52 0Z" />
      <path d="M59 7C59 3.13348 55.8665 0 52 0L7 0C3.13348 0 0 3.13348 0 7L0 36C0 39.8665 3.13348 43 7 43L52 43C55.8665 43 59 39.8665 59 36L59 7ZM7 3L52 3Q56 3 56 7L56 36Q56 37.6572 54.8286 38.8286Q53.6572 40 52 40L7 40Q3 40 3 36L3 7Q3 3 7 3Z" fill="#F8F8F8" fill-rule="evenodd" />
    </g>
    <g fill="#030303" transform="translate(6 6)">
      <path d="M45 0C46.1047 0 47 0.89528 47 2L47 29C47 30.1047 46.1047 31 45 31L2 31C0.89528 31 0 30.1047 0 29L0 2C0 0.89528 0.89528 0 2 0L45 0Z" />
      <path d="M47 2C47 0.89528 46.1047 0 45 0L2 0C0.89528 0 0 0.89528 0 2L0 29C0 30.1047 0.89528 31 2 31L45 31C46.1047 31 47 30.1047 47 29L47 2ZM44 3L3 3L3 28L44 28L44 3Z" fill="#F8F8F8" fill-rule="evenodd" />
    </g>
    <path d="M9 5.73047Q11.1914 5.73047 12.7383 6.49219L12.7383 10.0781L12.7148 10.1016Q12.0586 9.09375 9.94922 8.76563Q9.32812 8.66016 8.37891 8.66016Q7.42969 8.66016 6.51563 9.01758Q5.60156 9.375 5.01563 10.0313Q3.87891 11.3086 3.87891 13.6758Q3.87891 16.4297 5.32031 17.7773Q6.51563 18.9023 8.48438 18.9023Q10.7109 18.9023 12.0938 17.9531Q12.5977 17.6133 12.9492 17.1094L12.9844 17.1328L12.9844 20.4141Q11.1914 21.9023 8.15625 21.9023Q4.58203 21.9023 2.55469 19.6289Q0.609375 17.4609 0.609375 13.8867Q0.609375 10.1016 2.74219 7.92188Q4.89844 5.73047 9 5.73047ZM22.6055 21.6563C22.3555 21.625 21.9453 21.6094 21.375 21.6094L20.0859 21.6094C19.875 21.6094 19.6836 21.6172 19.5117 21.6328L19.5 21.6094Q19.5469 21.5273 19.5469 21.4219Q19.5469 21.3164 19.5293 21.1992Q19.5117 21.082 19.4297 20.7773Q19.3477 20.4727 19.1719 19.8984L18.6797 18.3281L14.3203 5.97656Q15.0469 6.02344 16.1719 6.02344Q17.2969 6.02344 17.6133 5.92969L21.1406 16.582L24.2344 5.97656Q24.9375 6.02344 25.9688 6.02344Q27.375 6.02344 27.6094 5.92969L23.332 18.293Q23.332 18.293 22.9219 19.6641Q22.582 20.8359 22.582 21.1816Q22.582 21.5273 22.6289 21.6211L22.6055 21.6563Z" fill="#F8F8F8" clip-path="url(#clip_path_1)" transform="translate(15 8)" />
  </g>
</svg>